<svg xmlns="http://www.w3.org/2000/svg" width="128" height="43" viewBox="0 0 128 43">
    <g fill="none" fill-rule="nonzero">
        <path fill="#A6A6A6" d="M117.477 0H10.17c-.39 0-.777 0-1.167.002-.327.002-.65.009-.98.014a13.99 13.99 0 0 0-2.138.19A6.87 6.87 0 0 0 2.13 2.147 6.726 6.726 0 0 0 .874 3.89a7.135 7.135 0 0 0-.667 2.046c-.118.71-.182 1.43-.19 2.152-.01.33-.012.66-.017.99v24.847c.005.334.006.658.016.992.009.72.073 1.44.191 2.152a7.12 7.12 0 0 0 .667 2.047c.323.643.748 1.229 1.257 1.735.504.513 1.087.94 1.726 1.267a7.11 7.11 0 0 0 2.028.678c.707.117 1.421.18 2.137.19.33.008.654.012.98.012.39.002.777.002 1.168.002h107.307c.383 0 .773 0 1.156-.002.325 0 .659-.004.984-.012a14.057 14.057 0 0 0 2.133-.19 7.219 7.219 0 0 0 2.035-.678 6.699 6.699 0 0 0 1.725-1.267 6.872 6.872 0 0 0 1.26-1.735 7.139 7.139 0 0 0 .661-2.047c.12-.712.185-1.431.198-2.152.004-.334.004-.658.004-.992.009-.39.009-.778.009-1.175V10.25c0-.393 0-.784-.009-1.173 0-.33 0-.66-.004-.99a14.63 14.63 0 0 0-.198-2.152 7.153 7.153 0 0 0-.66-2.047 6.924 6.924 0 0 0-2.986-3.01 7.18 7.18 0 0 0-2.035-.673 13.809 13.809 0 0 0-2.133-.19c-.325-.006-.659-.012-.984-.014C118.25 0 117.86 0 117.477 0z"/>
        <path fill="#000" d="M9.008 42.06c-.325 0-.642-.005-.965-.012a13.43 13.43 0 0 1-1.994-.175 6.242 6.242 0 0 1-1.767-.59 5.768 5.768 0 0 1-1.49-1.092 5.718 5.718 0 0 1-1.088-1.502 6.185 6.185 0 0 1-.58-1.781c-.11-.666-.169-1.34-.177-2.016-.007-.226-.016-.981-.016-.981V9.078s.01-.744.016-.962a13.4 13.4 0 0 1 .176-2.012 6.221 6.221 0 0 1 .58-1.787 5.775 5.775 0 0 1 1.083-1.503 5.939 5.939 0 0 1 3.26-1.684c.66-.109 1.33-.168 2-.176L9.008.94h109.62l.974.013a13.11 13.11 0 0 1 1.982.175 6.3 6.3 0 0 1 1.783.589 5.99 5.99 0 0 1 2.576 2.601c.278.559.47 1.157.57 1.773.111.67.173 1.349.186 2.029.003.304.003.631.003.957.008.403.008.786.008 1.173V32.75c0 .39 0 .771-.008 1.156 0 .35 0 .67-.004.999a13.79 13.79 0 0 1-.182 1.992c-.1.625-.294 1.23-.576 1.796a5.89 5.89 0 0 1-1.084 1.49c-.435.444-.94.815-1.492 1.099-.56.285-1.16.485-1.78.59-.659.11-1.325.168-1.993.176-.313.007-.64.011-.958.011l-1.156.003-108.47-.003z"/>
        <g fill="#FFF">
            <path d="M26.42 21.823a5.329 5.329 0 0 1 2.514-4.463 5.392 5.392 0 0 0-4.257-2.32c-1.792-.19-3.528 1.08-4.44 1.08-.931 0-2.337-1.06-3.85-1.03a5.664 5.664 0 0 0-4.771 2.933c-2.063 3.6-.524 8.89 1.452 11.8.989 1.424 2.144 3.015 3.656 2.959 1.48-.062 2.032-.95 3.818-.95 1.77 0 2.288.95 3.83.914 1.588-.026 2.588-1.431 3.542-2.87a11.822 11.822 0 0 0 1.62-3.324 5.142 5.142 0 0 1-3.114-4.729zM23.506 13.127a5.265 5.265 0 0 0 1.19-3.753 5.275 5.275 0 0 0-3.422 1.784 5.009 5.009 0 0 0-1.22 3.614 4.36 4.36 0 0 0 3.452-1.645z"/>
            <g>
                <path d="M45.122 29.175h-5.049l-1.212 3.608h-2.139l4.783-13.349h2.222l4.782 13.35h-2.175l-1.212-3.609zm-4.526-1.665H44.6l-1.973-5.856h-.056l-1.974 5.856zM58.837 27.917c0 3.025-1.606 4.968-4.03 4.968a3.269 3.269 0 0 1-3.039-1.703h-.046v4.821H49.74V23.051h1.919v1.618h.036a3.42 3.42 0 0 1 3.075-1.72c2.451 0 4.067 1.952 4.067 4.968zm-2.038 0c0-1.97-1.01-3.265-2.552-3.265-1.514 0-2.533 1.322-2.533 3.265 0 1.961 1.019 3.275 2.533 3.275 1.542 0 2.552-1.286 2.552-3.275zM69.466 27.917c0 3.025-1.606 4.968-4.03 4.968a3.269 3.269 0 0 1-3.039-1.703h-.045v4.821h-1.983V23.051h1.919v1.618h.036a3.42 3.42 0 0 1 3.075-1.72c2.452 0 4.067 1.952 4.067 4.968zm-2.037 0c0-1.97-1.01-3.265-2.552-3.265-1.515 0-2.534 1.322-2.534 3.265 0 1.961 1.019 3.275 2.534 3.275 1.541 0 2.552-1.286 2.552-3.275zM76.491 29.064c.147 1.324 1.423 2.193 3.167 2.193 1.67 0 2.873-.87 2.873-2.063 0-1.036-.725-1.657-2.442-2.082l-1.717-.417c-2.432-.592-3.561-1.738-3.561-3.598 0-2.304 1.992-3.886 4.82-3.886 2.799 0 4.717 1.582 4.782 3.886h-2.001c-.12-1.333-1.213-2.137-2.81-2.137-1.596 0-2.689.814-2.689 1.998 0 .944.698 1.5 2.405 1.924l1.46.362c2.717.647 3.846 1.747 3.846 3.7 0 2.498-1.973 4.062-5.113 4.062-2.938 0-4.92-1.528-5.049-3.942h2.03zM88.903 20.747v2.304h1.836v1.582h-1.836v5.365c0 .834.367 1.222 1.175 1.222.218-.004.435-.02.652-.046v1.573c-.363.068-.732.099-1.101.092-1.956 0-2.718-.74-2.718-2.628v-5.578h-1.404V23.05h1.404v-2.304h1.992zM91.803 27.917c0-3.062 1.79-4.986 4.58-4.986 2.8 0 4.581 1.924 4.581 4.986 0 3.071-1.772 4.987-4.581 4.987s-4.58-1.916-4.58-4.987zm7.141 0c0-2.1-.955-3.34-2.561-3.34-1.606 0-2.56 1.25-2.56 3.34 0 2.11.954 3.34 2.56 3.34s2.561-1.23 2.561-3.34zM102.598 23.05h1.891v1.657h.046a2.306 2.306 0 0 1 2.323-1.758c.228-.001.456.024.679.074v1.869a2.751 2.751 0 0 0-.89-.12 1.99 1.99 0 0 0-1.545.64 2.023 2.023 0 0 0-.521 1.598v5.773h-1.983v-9.732zM116.677 29.925c-.267 1.766-1.974 2.979-4.159 2.979-2.81 0-4.553-1.897-4.553-4.94 0-3.053 1.753-5.033 4.47-5.033 2.672 0 4.352 1.85 4.352 4.8v.685h-6.82v.12a2.547 2.547 0 0 0 .68 1.97 2.505 2.505 0 0 0 1.917.788 2.183 2.183 0 0 0 2.23-1.37h1.883zm-6.701-2.905h4.828a2.351 2.351 0 0 0-.65-1.757 2.313 2.313 0 0 0-1.72-.713 2.435 2.435 0 0 0-1.74.718 2.474 2.474 0 0 0-.718 1.752z"/>
            </g>
        </g>
        <g fill="#FFF">
            <path d="M37.79 12.595c0-2.08 1.098-3.365 2.866-3.365a2.549 2.549 0 0 1 2.647 2.223h-.984a1.64 1.64 0 0 0-1.663-1.294c-1.142 0-1.857.938-1.857 2.436 0 1.494.715 2.431 1.861 2.431a1.596 1.596 0 0 0 1.659-1.182h.984a2.488 2.488 0 0 1-2.643 2.111c-1.768 0-2.87-1.284-2.87-3.36zM44.384 13.378a2.299 2.299 0 0 1 1.066-2.167 2.26 2.26 0 0 1 2.4 0c.734.46 1.147 1.299 1.065 2.167a2.3 2.3 0 0 1-1.064 2.17 2.26 2.26 0 0 1-2.403 0 2.3 2.3 0 0 1-1.064-2.17zm3.556 0c0-1.05-.468-1.663-1.289-1.663-.824 0-1.287.613-1.287 1.663 0 1.057.463 1.666 1.287 1.666.82 0 1.289-.613 1.289-1.666zM50.186 10.96h.913v.768h.07a1.437 1.437 0 0 1 1.434-.862c.474-.036.937.147 1.26.497.324.35.472.83.403 1.303V15.8h-.948v-2.894c0-.778-.336-1.164-1.037-1.164a1.097 1.097 0 0 0-.853.347c-.22.236-.328.557-.294.88V15.8h-.948v-4.84zM57.488 10.866c1.08 0 1.786.507 1.879 1.36h-.91c-.087-.355-.432-.582-.97-.582-.529 0-.93.253-.93.63 0 .29.242.472.763.592l.798.187c.913.213 1.341.61 1.341 1.32 0 .912-.842 1.52-1.99 1.52-1.142 0-1.887-.52-1.971-1.377h.949c.168.42.6.67 1.045.604.59 0 1.01-.267 1.01-.654 0-.288-.225-.475-.706-.59l-.838-.197c-.913-.217-1.336-.63-1.336-1.35 0-.859.78-1.463 1.866-1.463zM60.656 10.15l1.108-1.529h1.111l-1.24 1.529h-.979zm.098.81h.944v4.84h-.944v-4.84zM63.174 16.285h.97c.08.35.481.577 1.12.577.79 0 1.258-.377 1.258-1.017v-.93h-.07c-.304.53-.877.845-1.483.814-1.226 0-1.985-.956-1.985-2.405 0-1.476.767-2.445 1.994-2.445a1.662 1.662 0 0 1 1.508.854h.075v-.774h.909v4.88c0 1.108-.86 1.81-2.219 1.81-1.2 0-1.976-.542-2.077-1.364zm3.366-2.966c0-.964-.495-1.582-1.302-1.582-.816 0-1.274.618-1.274 1.582 0 .965.458 1.583 1.274 1.583.812 0 1.302-.613 1.302-1.583zM73.03 15.8h-.914v-.769h-.075c-.249.572-.833.92-1.45.863-.471.033-.932-.15-1.253-.498a1.58 1.58 0 0 1-.403-1.294v-3.143h.95v2.894c0 .782.312 1.156 1.01 1.156.327.031.65-.088.88-.324.23-.237.343-.565.306-.894v-2.832h.949V15.8zM78.602 14.493a1.95 1.95 0 0 1-2.082 1.4 2.174 2.174 0 0 1-1.683-.731 2.21 2.21 0 0 1-.535-1.767 2.244 2.244 0 0 1 .534-1.774 2.208 2.208 0 0 1 1.68-.755c1.337 0 2.143.92 2.143 2.44v.334h-3.392v.053c-.03.36.092.715.335.979.244.264.587.412.944.408.464.056.916-.176 1.143-.587h.913zm-3.335-1.56h2.426a1.173 1.173 0 0 0-.315-.89 1.154 1.154 0 0 0-.867-.364 1.223 1.223 0 0 0-.884.363 1.243 1.243 0 0 0-.36.891zM79.976 9.07h.947v6.73h-.947zM82.241 13.378a2.299 2.299 0 0 1 1.065-2.167 2.26 2.26 0 0 1 2.4 0c.735.46 1.148 1.299 1.065 2.167a2.3 2.3 0 0 1-1.064 2.17 2.26 2.26 0 0 1-2.402 0 2.3 2.3 0 0 1-1.064-2.17zm3.555 0c0-1.05-.467-1.663-1.288-1.663-.824 0-1.288.613-1.288 1.663 0 1.057.464 1.666 1.288 1.666.82 0 1.288-.613 1.288-1.666zM94.711 14.493a1.95 1.95 0 0 1-2.081 1.4 2.174 2.174 0 0 1-1.684-.731 2.21 2.21 0 0 1-.535-1.767 2.244 2.244 0 0 1 .535-1.774 2.208 2.208 0 0 1 1.68-.755c1.336 0 2.142.92 2.142 2.44v.334h-3.391v.053c-.03.36.091.715.335.979.243.264.586.412.944.408.464.056.915-.176 1.142-.587h.913zm-3.334-1.56h2.426a1.173 1.173 0 0 0-.316-.89 1.154 1.154 0 0 0-.867-.364 1.223 1.223 0 0 0-.884.363 1.243 1.243 0 0 0-.36.891zM96.041 10.96h.913v.768h.07a1.437 1.437 0 0 1 1.434-.862c.473-.036.937.147 1.26.497.324.35.472.83.402 1.303V15.8h-.948v-2.894c0-.778-.335-1.164-1.036-1.164a1.097 1.097 0 0 0-.853.347c-.22.236-.328.557-.294.88V15.8h-.948v-4.84zM108.254 14.493a1.95 1.95 0 0 1-2.082 1.4 2.174 2.174 0 0 1-1.683-.731 2.21 2.21 0 0 1-.535-1.767 2.244 2.244 0 0 1 .534-1.774 2.208 2.208 0 0 1 1.68-.755c1.337 0 2.143.92 2.143 2.44v.334h-3.392v.053c-.03.36.092.715.336.979.243.264.586.412.943.408.464.056.916-.176 1.143-.587h.913zm-3.335-1.56h2.426a1.173 1.173 0 0 0-.315-.89 1.154 1.154 0 0 0-.867-.364 1.223 1.223 0 0 0-.884.363 1.243 1.243 0 0 0-.36.891zM109.628 9.07h.948v6.73h-.948z"/>
        </g>
    </g>
</svg>
