<svg xmlns="http://www.w3.org/2000/svg" width="128" height="38" viewBox="0 0 128 38">
    <defs>
        <linearGradient id="a" x1="61.033%" x2="26.771%" y1="4.84%" y2="71.969%">
            <stop offset="0%" stop-color="#00A3FF"/>
            <stop offset=".657%" stop-color="#00A4FF"/>
            <stop offset="26.01%" stop-color="#00C2FF"/>
            <stop offset="51.22%" stop-color="#00D6FF"/>
            <stop offset="76.04%" stop-color="#00E3FF"/>
            <stop offset="100%" stop-color="#00E7FF"/>
        </linearGradient>
        <linearGradient id="b" x1="107.773%" x2="-130.62%" y1="49.431%" y2="49.431%">
            <stop offset="0%" stop-color="#FFDF00"/>
            <stop offset="40.87%" stop-color="#FFBA00"/>
            <stop offset="77.54%" stop-color="#FFA000"/>
            <stop offset="100%" stop-color="#FF9600"/>
        </linearGradient>
        <linearGradient id="c" x1="86.417%" x2="-49.86%" y1="30.469%" y2="137.625%">
            <stop offset="0%" stop-color="#FF0739"/>
            <stop offset="100%" stop-color="#D50062"/>
        </linearGradient>
        <linearGradient id="d" x1="-18.551%" x2="42.302%" y1="-12.869%" y2="34.795%">
            <stop offset="0%" stop-color="#00A36D"/>
            <stop offset="6.85%" stop-color="#00AA6C"/>
            <stop offset="47.62%" stop-color="#00D369"/>
            <stop offset="80.09%" stop-color="#00EB66"/>
            <stop offset="100%" stop-color="#00F465"/>
        </linearGradient>
    </defs>
    <g fill="none" fill-rule="nonzero">
        <path d="M0 0h128v38H0z"/>
        <path fill="#000" d="M123.294 38H4.706C2.07 38 0 35.91 0 33.25V4.75C0 2.09 2.07 0 4.706 0h118.588C125.93 0 128 2.09 128 4.75v28.5c0 2.66-2.07 4.75-4.706 4.75z"/>
        <path fill="#A6A6A6" d="M123.294.76c2.165 0 3.953 1.805 3.953 3.99v28.5c0 2.185-1.788 3.99-3.953 3.99H4.706c-2.165 0-3.953-1.805-3.953-3.99V4.75C.753 2.565 2.54.76 4.706.76h118.588zm0-.76H4.706C2.07 0 0 2.185 0 4.75v28.5C0 35.91 2.07 38 4.706 38h118.588c2.635 0 4.706-2.09 4.706-4.75V4.75c0-2.565-2.07-4.75-4.706-4.75z"/>
        <path fill="#FFF" d="M64.188 20.71c-2.259 0-4.047 1.71-4.047 4.085 0 2.28 1.788 4.085 4.047 4.085 2.26 0 4.047-1.71 4.047-4.085 0-2.47-1.788-4.085-4.047-4.085zm0 6.46c-1.223 0-2.259-1.045-2.259-2.47 0-1.425 1.036-2.47 2.26-2.47 1.223 0 2.258.95 2.258 2.47 0 1.425-1.035 2.47-2.259 2.47zm-8.753-6.46c-2.259 0-4.047 1.71-4.047 4.085 0 2.28 1.788 4.085 4.047 4.085 2.26 0 4.047-1.71 4.047-4.085 0-2.47-1.788-4.085-4.047-4.085zm0 6.46c-1.223 0-2.259-1.045-2.259-2.47 0-1.425 1.036-2.47 2.26-2.47 1.223 0 2.258.95 2.258 2.47 0 1.425-1.035 2.47-2.259 2.47zm-10.447-5.225v1.71h4.047c-.094.95-.47 1.71-.94 2.185-.566.57-1.507 1.235-3.107 1.235-2.54 0-4.423-1.995-4.423-4.56 0-2.565 1.976-4.56 4.423-4.56 1.318 0 2.353.57 3.106 1.235l1.224-1.235c-1.036-.95-2.353-1.71-4.236-1.71-3.388 0-6.306 2.85-6.306 6.27 0 3.42 2.918 6.27 6.306 6.27 1.883 0 3.2-.57 4.33-1.805 1.13-1.14 1.506-2.755 1.506-3.99 0-.38 0-.76-.094-1.045h-5.836zm42.73 1.33c-.377-.95-1.318-2.565-3.389-2.565-2.07 0-3.764 1.615-3.764 4.085 0 2.28 1.694 4.085 3.953 4.085 1.788 0 2.917-1.14 3.294-1.805l-1.318-.95c-.47.665-1.035 1.14-1.976 1.14-.942 0-1.506-.38-1.977-1.235l5.365-2.28-.188-.475zm-5.46 1.33c0-1.52 1.224-2.375 2.071-2.375.66 0 1.318.38 1.506.855l-3.576 1.52zM77.836 28.5h1.789V16.625h-1.789V28.5zm-2.823-6.935c-.47-.475-1.224-.95-2.165-.95-1.976 0-3.859 1.805-3.859 4.085 0 2.28 1.788 3.99 3.86 3.99.94 0 1.693-.475 2.07-.95h.094v.57c0 1.52-.847 2.375-2.165 2.375-1.035 0-1.788-.76-1.976-1.425l-1.506.665c.47 1.045 1.6 2.375 3.576 2.375 2.07 0 3.765-1.235 3.765-4.18V20.9h-1.694v.665zm-2.07 5.605c-1.224 0-2.26-1.045-2.26-2.47 0-1.425 1.036-2.47 2.26-2.47 1.223 0 2.164 1.045 2.164 2.47 0 1.425-.941 2.47-2.165 2.47zm22.964-10.545H91.67V28.5h1.788v-4.465h2.447c1.976 0 3.859-1.425 3.859-3.705 0-2.28-1.883-3.705-3.86-3.705zm.094 5.7h-2.541V18.24H96c1.318 0 2.07 1.14 2.07 1.995-.094 1.045-.752 2.09-2.07 2.09zm10.824-1.71c-1.318 0-2.636.57-3.106 1.805l1.6.665c.376-.665.94-.855 1.6-.855.94 0 1.788.57 1.882 1.52v.095c-.282-.19-1.035-.475-1.788-.475-1.694 0-3.388.95-3.388 2.66 0 1.615 1.411 2.66 2.917 2.66 1.224 0 1.788-.57 2.259-1.14h.094v.95h1.694v-4.56c-.188-2.09-1.788-3.325-3.764-3.325zm-.189 6.555c-.564 0-1.411-.285-1.411-1.045 0-.95 1.035-1.235 1.882-1.235.753 0 1.13.19 1.6.38-.188 1.14-1.13 1.9-2.07 1.9zm9.883-6.27l-1.977 5.13h-.094l-2.07-5.13h-1.883l3.106 7.22-1.788 3.99h1.788l4.8-11.21h-1.882zm-15.812 7.6h1.788V16.625h-1.788V28.5z"/>
        <path fill="url(#a)" d="M.47.475C.189.76 0 1.235 0 1.805V22.8c0 .57.188 1.045.47 1.33l.095.095 11.67-11.78v-.19L.471.475z" transform="translate(9.412 6.65)"/>
        <path fill="url(#b)" d="M16.094 16.435l-3.859-3.99v-.19l3.86-3.895.093.095 4.612 2.66c1.318.76 1.318 1.995 0 2.755l-4.706 2.565z" transform="translate(9.412 6.65)"/>
        <path fill="url(#c)" d="M16.188 16.34l-3.953-3.99L.471 24.225c.47.475 1.129.475 1.976.095l13.741-7.98" transform="translate(9.412 6.65)"/>
        <path fill="url(#d)" d="M16.188 8.36L2.448.475C1.693 0 .94.095.47.475L12.235 12.35l3.953-3.99z" transform="translate(9.412 6.65)"/>
        <g fill="#000">
            <path d="M25.506 22.895l-13.647 7.79c-.753.475-1.412.38-1.883 0l-.094.095.094.095c.471.38 1.13.475 1.883 0l13.647-7.98z" opacity=".2"/>
            <path d="M9.882 30.685c-.282-.285-.47-.76-.47-1.33v.095c0 .57.188 1.045.47 1.33v-.095z" opacity=".12"/>
        </g>
        <path fill="#000" d="M30.212 20.235l-4.706 2.66.094.095 4.612-2.66c.659-.38.94-.855.94-1.33 0 .475-.281.855-.94 1.235z" opacity=".12"/>
        <path fill="#FFF" d="M11.859 7.22l18.353 10.545c.564.38.94.76.94 1.235 0-.475-.281-.95-.94-1.33L11.859 7.125c-1.318-.76-2.353-.095-2.353 1.425v.095c0-1.52 1.035-2.185 2.353-1.425z" opacity=".25"/>
        <g fill="#FFF" stroke="#FFF" stroke-width=".2">
            <path d="M38.965 12.35v-5.7h1.694c.847 0 1.6.285 2.07.76.565.57.753 1.235.753 2.09 0 .855-.282 1.52-.753 2.09-.564.57-1.223.76-2.07.76h-1.694zm.753-.665h1.035c.659 0 1.13-.19 1.506-.57.376-.38.565-.95.565-1.615s-.189-1.235-.565-1.615c-.377-.38-.941-.57-1.506-.57h-1.035v4.37zM44.518 12.35v-5.7h.753v5.7zM48.188 12.445c-.376 0-.847-.095-1.223-.38-.377-.285-.66-.665-.753-1.14l.659-.285c.094.285.282.57.47.76.283.19.565.285.847.285.283 0 .565-.095.847-.285.189-.19.377-.38.377-.665 0-.285-.094-.57-.377-.76-.188-.19-.564-.38-1.035-.475-.565 0-.941-.19-1.224-.475-.282-.285-.376-.57-.376-.95s.188-.76.47-1.045c.283-.285.754-.475 1.224-.475s.847.095 1.13.38c.282.285.47.475.564.76l-.659.285c-.094-.19-.188-.38-.376-.475-.188-.19-.47-.19-.753-.19-.282 0-.47.095-.753.19-.188.19-.282.38-.282.57 0 .19.094.38.282.57.188.19.47.285.847.38.282.095.47.19.659.285.188.095.376.19.565.38a.97.97 0 0 1 .47.57c.094.19.188.475.188.76 0 .285-.094.57-.188.76a1.14 1.14 0 0 1-.47.475l-.565.285c-.094-.095-.377-.095-.565-.095zM51.859 12.35h-.753v-5.7h1.882c.47 0 .847.19 1.224.475.376.285.564.76.564 1.235 0 .475-.188.855-.564 1.235-.377.285-.753.475-1.224.475h-1.223v2.28h.094zm0-3.04h1.223c.283 0 .565-.095.753-.285.189-.19.283-.475.283-.665 0-.19-.094-.475-.283-.665-.188-.19-.47-.285-.753-.285H51.86v1.9zM60.33 11.59c-.565.57-1.224.855-2.071.855-.847 0-1.506-.285-2.07-.855-.565-.57-.848-1.235-.848-2.09 0-.855.283-1.52.847-2.09.565-.57 1.224-.855 2.07-.855.848 0 1.507.285 2.071.855.565.57.847 1.235.847 2.09 0 .855-.282 1.52-.847 2.09zm-3.577-.475c.376.38.941.665 1.506.665.565 0 1.13-.19 1.506-.665.376-.38.659-.95.659-1.615s-.189-1.235-.66-1.615c-.376-.38-.94-.665-1.505-.665s-1.13.19-1.506.665c-.377.38-.659.95-.659 1.615s.188 1.235.659 1.615zM62.212 12.35v-5.7h.847l2.73 4.465V6.65h.752v5.7h-.753l-2.917-4.655v4.655zM67.859 12.35v-5.7h.753v5.7zM69.835 12.35v-5.7h2.07c.471 0 .848.19 1.13.475.283.285.47.665.47 1.14 0 .285-.093.475-.187.76a.966.966 0 0 1-.565.475c.282.095.47.285.659.475.188.19.282.475.282.855 0 .475-.188.855-.47 1.14-.377.19-.753.38-1.224.38h-2.165zm.753-3.23h1.318c.282 0 .47-.095.659-.285.188-.19.282-.38.282-.57 0-.19-.188-.475-.282-.665-.189-.19-.377-.285-.66-.285h-1.317V9.12zm0 2.565h1.506c.282 0 .47-.095.659-.285a.866.866 0 0 0 .282-.665c0-.19-.094-.475-.282-.665-.188-.19-.377-.285-.659-.285h-1.506v1.9zM74.635 12.35v-5.7h.753v5.035h2.447v.665zM82.07 7.315h-2.54V9.12h2.352v.665H79.53v1.805h2.542v.76h-3.295v-5.7h3.295zM88.376 7.315h-2.54V9.12h2.352v.665h-2.353v1.805h2.541v.76h-3.294v-5.7h3.294zM89.506 12.35v-5.7h.847l2.73 4.465V6.65h.752v5.7h-.753l-2.917-4.655v4.655z"/>
        </g>
    </g>
</svg>
