<svg
            version="1.1"
            xmlns="http://www.w3.org/2000/svg"
            x="0px"
            y="0px"
            viewBox="0 0 72 24"
            id="logo"
          >
            <path
              id="letter-1"
              class="st0"
              d="M3,2.77V1.61c0-0.27,0.22-0.48,0.48-0.48h1.16c0.26,0,0.48,0.21,0.48,0.48l0,0v1.16
    c0,0.27-0.22,0.48-0.48,0.48l0,0H3.49C3.22,3.25,3,3.03,3,2.77z M3.5,17.71h1.14c0.26,0,0.47-0.21,0.47-0.47V5.6
    c0-0.26-0.21-0.47-0.47-0.47l0,0H3.5c-0.26,0-0.47,0.21-0.47,0.47v11.64C3.02,17.5,3.24,17.71,3.5,17.71z"
            />
            <path
              id="letter-2"
              class="st0"
              d="M11.83,2.7V1.67c0-0.24,0.21-0.43,0.47-0.43h3.23c0.26,0,0.47,0.19,0.47,0.43V2.7
    c0,0.23-0.21,0.43-0.47,0.43H12.3C12.04,3.13,11.83,2.94,11.83,2.7z M19.37,12.33V5.62c-0.01-0.27-0.23-0.49-0.5-0.48h-1.11
    c-0.26,0-0.48,0.21-0.48,0.47v0.01v6.6c0,1.94-0.9,3.8-3.36,3.8s-3.34-1.86-3.34-3.8v-6.4c0-0.48-0.23-0.69-0.5-0.69H8.95
    c-0.26,0-0.48,0.21-0.48,0.47v0.01v6.71c0,3.13,2.03,5.58,5.45,5.58S19.37,15.46,19.37,12.33z"
            />
            <path
              id="letter-3"
              class="st0"
              d="M27.76,4.95c-3.43,0-5.45,2.44-5.45,5.58v6.71c0,0.26,0.21,0.48,0.47,0.48h0.01h1.13
    c0.27,0,0.5-0.21,0.5-0.69v-6.39c0-1.94,0.88-3.8,3.34-3.8s3.36,1.86,3.36,3.8v6.6c0,0.26,0.21,0.48,0.47,0.48h0.01h1.11
    c0.27,0.01,0.5-0.21,0.5-0.48v-6.71C33.21,7.39,31.18,4.95,27.76,4.95z"
            />
            <path
              id="letter-4"
              class="st0"
              d="M36.54,2.77V1.61c0-0.27,0.22-0.48,0.48-0.48h1.16c0.27,0,0.48,0.21,0.48,0.48v1.16
    c0,0.27-0.22,0.48-0.48,0.48l0,0h-1.16C36.76,3.25,36.54,3.03,36.54,2.77L36.54,2.77z M36.56,17.22V5.62c0-0.27,0.22-0.49,0.49-0.49
    l0,0h1.11c0.27,0,0.49,0.22,0.49,0.49l0,0v11.61c0,0.27-0.22,0.49-0.49,0.49h-1.11C36.78,17.71,36.56,17.49,36.56,17.22L36.56,17.22
    z"
            />
            <path
              id="letter-5"
              class="st0"
              d="M47.88,22.93c-2.16,0-3.95-0.96-5.16-2.47c-0.17-0.21-0.13-0.52,0.08-0.69
    c0.01-0.01,0.02-0.02,0.04-0.03l0.87-0.58c0.22-0.14,0.51-0.09,0.66,0.12c0.75,1.02,1.94,1.77,3.51,1.77c2.49,0,4.25-1.81,4.49-4.77
    c0.01-0.11-0.07-0.21-0.18-0.22c-0.06-0.01-0.13,0.02-0.17,0.07c-0.96,1.13-2.57,1.76-4.13,1.76c-3.58,0.01-6.49-2.89-6.5-6.48l0,0
    c0-3.61,3.05-6.5,6.5-6.5c3.7,0,6.5,2.9,6.5,6.5v4.66C54.37,19.73,51.82,22.93,47.88,22.93z M52.43,11.41c0-2.57-1.8-4.62-4.55-4.62
    c-2.34,0-4.41,1.98-4.41,4.62c0,2.55,2.01,4.6,4.41,4.6C50.65,16.01,52.43,13.96,52.43,11.41L52.43,11.41z"
            />
            <path
              id="letter-6"
              class="st0"
              d="M67.51,11.41c0-2.57-1.9-4.62-4.43-4.62c-2.44,0-4.39,1.98-4.39,4.62c0,2.55,1.88,4.6,4.39,4.6
    C65.63,16.01,67.51,13.96,67.51,11.41z M69.6,11.41c0,3.55-2.82,6.48-6.52,6.48c-3.63,0-6.5-2.88-6.5-6.48
    c0.03-3.59,2.98-6.48,6.57-6.45C66.7,5,69.56,7.87,69.6,11.41L69.6,11.41z"
            />
          </svg>